<svg width="20" height="21" viewBox="0 0 20 21" fill="none" xmlns="http://www.w3.org/2000/svg">
<path fill-rule="evenodd" clip-rule="evenodd" d="M18.5795 5.86213C18.8968 5.9981 19.0438 6.36552 18.9078 6.68279L18.3334 6.43659C18.9078 6.68279 18.9079 6.68264 18.9078 6.68279L18.9072 6.68419L18.9063 6.68626L18.9037 6.69239L18.8948 6.71246C18.8873 6.72924 18.8766 6.75275 18.8628 6.78249C18.835 6.84195 18.7945 6.92638 18.7407 7.03172C18.6334 7.24226 18.473 7.53716 18.2571 7.88365C17.9024 8.45285 17.3937 9.16797 16.7184 9.87841L17.5253 10.6853C17.7694 10.9294 17.7694 11.3252 17.5253 11.5692C17.2812 11.8133 16.8855 11.8133 16.6414 11.5692L15.8076 10.7354C15.2579 11.196 14.6274 11.6283 13.9126 11.9834L14.6905 13.1791C14.8788 13.4684 14.7969 13.8555 14.5076 14.0438C14.2182 14.232 13.8311 14.1501 13.6428 13.8608L12.7352 12.4659C12.0857 12.678 11.3826 12.8221 10.625 12.8738V14.3533C10.625 14.6984 10.3452 14.9783 10 14.9783C9.65484 14.9783 9.37502 14.6984 9.37502 14.3533V12.8738C8.64083 12.8237 7.95766 12.6868 7.32493 12.4853L6.42987 13.8608C6.24162 14.1502 5.85447 14.2321 5.56514 14.0438C5.27582 13.8556 5.19389 13.4684 5.38214 13.1791L6.14249 12.0106C5.42217 11.6588 4.78659 11.2284 4.2321 10.7685L3.43128 11.5693C3.18721 11.8134 2.79148 11.8134 2.5474 11.5693C2.30332 11.3252 2.30332 10.9295 2.5474 10.6854L3.3172 9.9156C2.63007 9.19919 2.11279 8.47539 1.75239 7.89881C1.53328 7.54829 1.37058 7.24963 1.26165 7.03633C1.20715 6.92961 1.166 6.84405 1.13789 6.78379C1.12383 6.75365 1.11302 6.72983 1.10543 6.71283L1.09643 6.6925L1.09373 6.6863L1.09283 6.6842L1.09249 6.68341C1.09242 6.68326 1.09222 6.68279 1.66668 6.43659L1.09249 6.68341C0.956513 6.36614 1.10322 5.9981 1.42048 5.86213C1.73749 5.72627 2.10457 5.87288 2.24081 6.18961C2.24077 6.1895 2.24086 6.18972 2.24081 6.18961L2.24161 6.19144L2.24667 6.20286C2.25158 6.21386 2.25958 6.23151 2.27069 6.25532C2.29291 6.30296 2.32755 6.37513 2.37488 6.46782C2.46963 6.65334 2.61476 6.92015 2.81235 7.23626C3.20869 7.87032 3.80972 8.6925 4.62975 9.45459C5.35134 10.1252 6.23557 10.7429 7.29312 11.1498C8.08853 11.4558 8.98789 11.6449 10 11.6449C11.0348 11.6449 11.9518 11.4472 12.7604 11.1289C13.8116 10.7152 14.6898 10.0935 15.4056 9.42158C16.2136 8.66323 16.8058 7.84922 17.1962 7.2226C17.3909 6.91018 17.5339 6.64681 17.6272 6.46382C17.6738 6.37239 17.7079 6.30123 17.7298 6.2543C17.7408 6.23084 17.7486 6.21345 17.7535 6.20263L17.7584 6.19139L17.7589 6.19039C17.7589 6.19047 17.7589 6.19031 17.7589 6.19039M18.5795 5.86213C18.2624 5.72619 17.8949 5.87329 17.7589 6.19039L18.5795 5.86213ZM2.24081 6.18961C2.24077 6.1895 2.24086 6.18972 2.24081 6.18961V6.18961Z" fill="#444955"/>
</svg>
