<svg width="48" height="46" viewBox="0 0 48 46" fill="none" xmlns="http://www.w3.org/2000/svg">
<path fill-rule="evenodd" clip-rule="evenodd" d="M27.2582 6.97166L31.0542 0.396782C40.3902 3.38026 47.1504 12.1271 47.1504 22.4528C47.1504 35.2384 36.7856 45.6033 23.9999 45.6033C11.2143 45.6033 0.849495 35.2384 0.849495 22.4528C0.849495 12.1876 7.53063 3.48289 16.7817 0.449856L20.547 6.97163C17.895 10.7375 16.3377 15.3298 16.3377 20.2858C16.3377 27.0686 19.2547 33.1701 23.9026 37.4043C28.5506 33.1701 31.4676 27.0686 31.4676 20.2858C31.4676 15.3298 29.9102 10.7375 27.2582 6.97166ZM22.0177 30.7619C22.0177 29.7249 22.8583 28.8843 23.8953 28.8843C24.9322 28.8843 25.7729 29.7249 25.7729 30.7619C25.7729 31.7989 24.9322 32.6395 23.8953 32.6395C22.8583 32.6395 22.0177 31.7989 22.0177 30.7619Z" fill="#651391"/>
</svg>
