<svg width="20" height="20" viewBox="0 0 20 20" fill="none" xmlns="http://www.w3.org/2000/svg">
<path fill-rule="evenodd" clip-rule="evenodd" d="M18.3332 9.99998C18.3332 14.6023 14.6022 18.3333 9.99984 18.3333C5.39746 18.3333 1.6665 14.6023 1.6665 9.99998C1.6665 5.3976 5.39746 1.66664 9.99984 1.66664C14.6022 1.66664 18.3332 5.3976 18.3332 9.99998ZM9.99984 14.7916C10.345 14.7916 10.6248 14.5118 10.6248 14.1666V9.16664C10.6248 8.82146 10.345 8.54164 9.99984 8.54164C9.65466 8.54164 9.37484 8.82146 9.37484 9.16664V14.1666C9.37484 14.5118 9.65466 14.7916 9.99984 14.7916ZM9.99984 5.83331C10.4601 5.83331 10.8332 6.2064 10.8332 6.66664C10.8332 7.12688 10.4601 7.49997 9.99984 7.49997C9.5396 7.49997 9.1665 7.12688 9.1665 6.66664C9.1665 6.2064 9.5396 5.83331 9.99984 5.83331Z" fill="#FF0000"/>
</svg>
