<svg width="20" height="21" viewBox="0 0 20 21" fill="none" xmlns="http://www.w3.org/2000/svg">
<path fill-rule="evenodd" clip-rule="evenodd" d="M8.2864 3.31162H11.7138C13.2452 3.3116 14.4583 3.31159 15.4076 3.43923C16.3846 3.57058 17.1754 3.84735 17.799 4.47098C18.4227 5.09462 18.6994 5.88541 18.8308 6.86243C18.9584 7.81178 18.9584 9.02481 18.9584 10.5563V10.6503C18.9584 12.1818 18.9584 13.3948 18.8308 14.3441C18.6994 15.3212 18.4227 16.1119 17.799 16.7356C17.1754 17.3592 16.3846 17.636 15.4076 17.7673C14.4583 17.895 13.2452 17.895 11.7138 17.8949H8.28641C6.75494 17.895 5.54191 17.895 4.59256 17.7673C3.61554 17.636 2.82475 17.3592 2.20112 16.7356C1.57748 16.1119 1.30072 15.3212 1.16936 14.3441C1.04172 13.3948 1.04174 12.1818 1.04175 10.6503V10.5563C1.04174 9.0248 1.04172 7.81177 1.16936 6.86243C1.30072 5.88541 1.57748 5.09462 2.20112 4.47098C2.82475 3.84735 3.61554 3.57058 4.59256 3.43923C5.54191 3.31159 6.75493 3.3116 8.2864 3.31162ZM4.75912 4.67808C3.92071 4.7908 3.43768 5.00219 3.085 5.35487C2.73233 5.70754 2.52094 6.19058 2.40821 7.02899C2.29308 7.88538 2.29175 9.01427 2.29175 10.6033C2.29175 12.1923 2.29308 13.3212 2.40821 14.1776C2.52094 15.016 2.73233 15.499 3.085 15.8517C3.43768 16.2044 3.92071 16.4158 4.75912 16.5285C5.61551 16.6436 6.7444 16.6449 8.33341 16.6449H11.6667C13.2558 16.6449 14.3847 16.6436 15.241 16.5285C16.0794 16.4158 16.5625 16.2044 16.9152 15.8517C17.2678 15.499 17.4792 15.016 17.5919 14.1776C17.7071 13.3212 17.7084 12.1923 17.7084 10.6033C17.7084 9.01427 17.7071 7.88538 17.5919 7.02899C17.4792 6.19058 17.2678 5.70754 16.9152 5.35487C16.5625 5.00219 16.0794 4.7908 15.241 4.67808C14.3847 4.56294 13.2558 4.56162 11.6667 4.56162H8.33342C6.7444 4.56162 5.61551 4.56294 4.75912 4.67808ZM4.51994 6.86983C4.74092 6.60466 5.13502 6.56883 5.4002 6.78981L7.19928 8.28904C7.97674 8.93693 8.51652 9.38529 8.97223 9.67839C9.41337 9.96211 9.71252 10.0573 10.0001 10.0573C10.2876 10.0573 10.5868 9.96211 11.0279 9.67839C11.4836 9.38529 12.0234 8.93693 12.8009 8.28904L14.6 6.78981C14.8651 6.56883 15.2592 6.60466 15.4802 6.86983C15.7012 7.13501 15.6654 7.52911 15.4002 7.75009L13.5698 9.27543C12.8312 9.89097 12.2325 10.3899 11.7041 10.7297C11.1537 11.0837 10.6176 11.3073 10.0001 11.3073C9.38252 11.3073 8.84648 11.0837 8.29606 10.7297C7.76768 10.3899 7.16901 9.89098 6.43038 9.27543L4.59997 7.75009C4.33479 7.52911 4.29897 7.13501 4.51994 6.86983Z" fill="currentColor"/>
</svg>
